<svg id="visual" viewBox="0 0 900 600" width="900" height="600" xmlns="http://www.w3.org/2000/svg" xmlns:xlink="http://www.w3.org/1999/xlink" version="1.1"><path d="M0 37L30 36C60 35 120 33 180 37C240 41 300 51 360 47C420 43 480 25 540 22C600 19 660 31 720 32C780 33 840 23 870 18L900 13L900 0L870 0C840 0 780 0 720 0C660 0 600 0 540 0C480 0 420 0 360 0C300 0 240 0 180 0C120 0 60 0 30 0L0 0Z" fill="#7493b6"></path><path d="M0 79L30 76C60 73 120 67 180 67C240 67 300 73 360 64C420 55 480 31 540 25C600 19 660 31 720 36C780 41 840 39 870 38L900 37L900 11L870 16C840 21 780 31 720 30C660 29 600 17 540 20C480 23 420 41 360 45C300 49 240 39 180 35C120 31 60 33 30 34L0 35Z" fill="#82a1c3"></path><path d="M0 115L30 109C60 103 120 91 180 87C240 83 300 87 360 83C420 79 480 67 540 68C600 69 660 83 720 91C780 99 840 101 870 102L900 103L900 35L870 36C840 37 780 39 720 34C660 29 600 17 540 23C480 29 420 53 360 62C300 71 240 65 180 65C120 65 60 71 30 74L0 77Z" fill="#91afd0"></path><path d="M0 193L30 174C60 155 120 117 180 105C240 93 300 107 360 131C420 155 480 189 540 201C600 213 660 203 720 205C780 207 840 221 870 228L900 235L900 101L870 100C840 99 780 97 720 89C660 81 600 67 540 66C480 65 420 77 360 81C300 85 240 81 180 85C120 89 60 101 30 107L0 113Z" fill="#a0bbd8"></path><path d="M0 283L30 284C60 285 120 287 180 295C240 303 300 317 360 321C420 325 480 319 540 299C600 279 660 245 720 247C780 249 840 287 870 306L900 325L900 233L870 226C840 219 780 205 720 203C660 201 600 211 540 199C480 187 420 153 360 129C300 105 240 91 180 103C120 115 60 153 30 172L0 191Z" fill="#afc6de"></path><path d="M0 331L30 338C60 345 120 359 180 373C240 387 300 401 360 400C420 399 480 383 540 350C600 317 660 267 720 262C780 257 840 297 870 317L900 337L900 323L870 304C840 285 780 247 720 245C660 243 600 277 540 297C480 317 420 323 360 319C300 315 240 301 180 293C120 285 60 283 30 282L0 281Z" fill="#b5cae0"></path><path d="M0 349L30 358C60 367 120 385 180 397C240 409 300 415 360 410C420 405 480 389 540 361C600 333 660 293 720 289C780 285 840 317 870 333L900 349L900 335L870 315C840 295 780 255 720 260C660 265 600 315 540 348C480 381 420 397 360 398C300 399 240 385 180 371C120 357 60 343 30 336L0 329Z" fill="#b5cae0"></path><path d="M0 361L30 373C60 385 120 409 180 424C240 439 300 445 360 442C420 439 480 427 540 410C600 393 660 371 720 363C780 355 840 361 870 364L900 367L900 347L870 331C840 315 780 283 720 287C660 291 600 331 540 359C480 387 420 403 360 408C300 413 240 407 180 395C120 383 60 365 30 356L0 347Z" fill="#afc6de"></path><path d="M0 457L30 466C60 475 120 493 180 506C240 519 300 527 360 528C420 529 480 523 540 523C600 523 660 529 720 532C780 535 840 535 870 535L900 535L900 365L870 362C840 359 780 353 720 361C660 369 600 391 540 408C480 425 420 437 360 440C300 443 240 437 180 422C120 407 60 383 30 371L0 359Z" fill="#a0bbd8"></path><path d="M0 499L30 508C60 517 120 535 180 543C240 551 300 549 360 545C420 541 480 535 540 535C600 535 660 541 720 544C780 547 840 547 870 547L900 547L900 533L870 533C840 533 780 533 720 530C660 527 600 521 540 521C480 521 420 527 360 526C300 525 240 517 180 504C120 491 60 473 30 464L0 455Z" fill="#91afd0"></path><path d="M0 553L30 559C60 565 120 577 180 577C240 577 300 565 360 562C420 559 480 565 540 571C600 577 660 583 720 584C780 585 840 581 870 579L900 577L900 545L870 545C840 545 780 545 720 542C660 539 600 533 540 533C480 533 420 539 360 543C300 547 240 549 180 541C120 533 60 515 30 506L0 497Z" fill="#82a1c3"></path><path d="M0 601L30 601C60 601 120 601 180 601C240 601 300 601 360 601C420 601 480 601 540 601C600 601 660 601 720 601C780 601 840 601 870 601L900 601L900 575L870 577C840 579 780 583 720 582C660 581 600 575 540 569C480 563 420 557 360 560C300 563 240 575 180 575C120 575 60 563 30 557L0 551Z" fill="#7493b6"></path></svg>