<svg id="visual" viewBox="0 0 900 600" width="900" height="600" xmlns="http://www.w3.org/2000/svg" xmlns:xlink="http://www.w3.org/1999/xlink" version="1.1"><g transform="translate(463.5393429650612 294.0135883832255)"><path d="M178.4 -295.6C222.4 -283.5 243.3 -218 278 -159.8C312.8 -101.7 361.4 -50.8 369.8 4.8C378.1 60.5 346.2 121 300.1 159.4C253.9 197.8 193.5 214.1 141.1 229.7C88.7 245.2 44.3 260.1 -11.5 280C-67.3 300 -134.7 324.9 -167.3 297.9C-199.9 270.9 -197.8 192 -239.1 133.6C-280.5 75.3 -365.2 37.7 -390.1 -14.3C-414.9 -66.3 -379.8 -132.7 -324.4 -166.6C-269 -200.5 -193.2 -202 -135.8 -206.3C-78.3 -210.7 -39.2 -217.8 14 -242.1C67.2 -266.3 134.3 -307.7 178.4 -295.6" fill="#3B6591"></path></g></svg>