<svg id="visual" viewBox="0 0 900 600" width="900" height="600" xmlns="http://www.w3.org/2000/svg" xmlns:xlink="http://www.w3.org/1999/xlink" version="1.1"><rect x="0" y="0" width="900" height="600" fill="#94B2D3"></rect><defs><linearGradient id="grad1_0" x1="33.3%" y1="0%" x2="100%" y2="100%"><stop offset="20%" stop-color="#608dbe" stop-opacity="1"></stop><stop offset="80%" stop-color="#608dbe" stop-opacity="1"></stop></linearGradient></defs><defs><linearGradient id="grad1_1" x1="33.3%" y1="0%" x2="100%" y2="100%"><stop offset="20%" stop-color="#608dbe" stop-opacity="1"></stop><stop offset="80%" stop-color="#6b94c2" stop-opacity="1"></stop></linearGradient></defs><defs><linearGradient id="grad1_2" x1="33.3%" y1="0%" x2="100%" y2="100%"><stop offset="20%" stop-color="#759cc6" stop-opacity="1"></stop><stop offset="80%" stop-color="#6b94c2" stop-opacity="1"></stop></linearGradient></defs><defs><linearGradient id="grad1_3" x1="33.3%" y1="0%" x2="100%" y2="100%"><stop offset="20%" stop-color="#759cc6" stop-opacity="1"></stop><stop offset="80%" stop-color="#7fa3cb" stop-opacity="1"></stop></linearGradient></defs><defs><linearGradient id="grad1_4" x1="33.3%" y1="0%" x2="100%" y2="100%"><stop offset="20%" stop-color="#8aabcf" stop-opacity="1"></stop><stop offset="80%" stop-color="#7fa3cb" stop-opacity="1"></stop></linearGradient></defs><defs><linearGradient id="grad1_5" x1="33.3%" y1="0%" x2="100%" y2="100%"><stop offset="20%" stop-color="#8aabcf" stop-opacity="1"></stop><stop offset="80%" stop-color="#94b2d3" stop-opacity="1"></stop></linearGradient></defs><defs><linearGradient id="grad2_0" x1="0%" y1="0%" x2="66.7%" y2="100%"><stop offset="20%" stop-color="#608dbe" stop-opacity="1"></stop><stop offset="80%" stop-color="#608dbe" stop-opacity="1"></stop></linearGradient></defs><defs><linearGradient id="grad2_1" x1="0%" y1="0%" x2="66.7%" y2="100%"><stop offset="20%" stop-color="#6b94c2" stop-opacity="1"></stop><stop offset="80%" stop-color="#608dbe" stop-opacity="1"></stop></linearGradient></defs><defs><linearGradient id="grad2_2" x1="0%" y1="0%" x2="66.7%" y2="100%"><stop offset="20%" stop-color="#6b94c2" stop-opacity="1"></stop><stop offset="80%" stop-color="#759cc6" stop-opacity="1"></stop></linearGradient></defs><defs><linearGradient id="grad2_3" x1="0%" y1="0%" x2="66.7%" y2="100%"><stop offset="20%" stop-color="#7fa3cb" stop-opacity="1"></stop><stop offset="80%" stop-color="#759cc6" stop-opacity="1"></stop></linearGradient></defs><defs><linearGradient id="grad2_4" x1="0%" y1="0%" x2="66.7%" y2="100%"><stop offset="20%" stop-color="#7fa3cb" stop-opacity="1"></stop><stop offset="80%" stop-color="#8aabcf" stop-opacity="1"></stop></linearGradient></defs><defs><linearGradient id="grad2_5" x1="0%" y1="0%" x2="66.7%" y2="100%"><stop offset="20%" stop-color="#94b2d3" stop-opacity="1"></stop><stop offset="80%" stop-color="#8aabcf" stop-opacity="1"></stop></linearGradient></defs><g transform="translate(900, 0)"><path d="M0 270.4C-31.3 236.1 -62.6 201.8 -106 183.6C-149.4 165.3 -204.8 163.1 -234.2 135.2C-263.6 107.3 -267 53.6 -270.4 0L0 0Z" fill="#8faed1"></path><path d="M0 225.3C-26.1 196.8 -52.2 168.2 -88.3 153C-124.5 137.8 -170.6 135.9 -195.2 112.7C-219.7 89.4 -222.5 44.7 -225.3 0L0 0Z" fill="#85a7cd"></path><path d="M0 180.3C-20.9 157.4 -41.8 134.6 -70.7 122.4C-99.6 110.2 -136.5 108.8 -156.1 90.1C-175.7 71.5 -178 35.8 -180.3 0L0 0Z" fill="#7a9fc8"></path><path d="M0 135.2C-15.7 118.1 -31.3 100.9 -53 91.8C-74.7 82.7 -102.4 81.6 -117.1 67.6C-131.8 53.6 -133.5 26.8 -135.2 0L0 0Z" fill="#7098c4"></path><path d="M0 90.1C-10.4 78.7 -20.9 67.3 -35.3 61.2C-49.8 55.1 -68.3 54.4 -78.1 45.1C-87.9 35.8 -89 17.9 -90.1 0L0 0Z" fill="#6591c0"></path><path d="M0 45.1C-5.2 39.4 -10.4 33.6 -17.7 30.6C-24.9 27.6 -34.1 27.2 -39 22.5C-43.9 17.9 -44.5 8.9 -45.1 0L0 0Z" fill="#608dbe"></path></g><g transform="translate(0, 600)"><path d="M0 -270.4C21.5 -219 42.9 -167.7 87.5 -151.6C132.1 -135.4 199.8 -154.6 234.2 -135.2C268.5 -115.8 269.5 -57.9 270.4 0L0 0Z" fill="#8faed1"></path><path d="M0 -225.3C17.9 -182.5 35.8 -139.7 72.9 -126.3C110.1 -112.9 166.5 -128.8 195.2 -112.7C223.8 -96.5 224.6 -48.3 225.3 0L0 0Z" fill="#85a7cd"></path><path d="M0 -180.3C14.3 -146 28.6 -111.8 58.3 -101C88.1 -90.3 133.2 -103.1 156.1 -90.1C179 -77.2 179.6 -38.6 180.3 0L0 0Z" fill="#7a9fc8"></path><path d="M0 -135.2C10.7 -109.5 21.5 -83.8 43.7 -75.8C66 -67.7 99.9 -77.3 117.1 -67.6C134.3 -57.9 134.7 -29 135.2 0L0 0Z" fill="#7098c4"></path><path d="M0 -90.1C7.2 -73 14.3 -55.9 29.2 -50.5C44 -45.1 66.6 -51.5 78.1 -45.1C89.5 -38.6 89.8 -19.3 90.1 0L0 0Z" fill="#6591c0"></path><path d="M0 -45.1C3.6 -36.5 7.2 -27.9 14.6 -25.3C22 -22.6 33.3 -25.8 39 -22.5C44.8 -19.3 44.9 -9.7 45.1 0L0 0Z" fill="#608dbe"></path></g></svg>