<svg id="visual" viewBox="0 0 900 600" width="900" height="600" xmlns="http://www.w3.org/2000/svg" xmlns:xlink="http://www.w3.org/1999/xlink" version="1.1"><rect x="0" y="0" width="900" height="600" fill="#94B2D3"></rect><defs><linearGradient id="grad1_0" x1="33.3%" y1="0%" x2="100%" y2="100%"><stop offset="20%" stop-color="#233c57" stop-opacity="1"></stop><stop offset="80%" stop-color="#233c57" stop-opacity="1"></stop></linearGradient></defs><defs><linearGradient id="grad1_1" x1="33.3%" y1="0%" x2="100%" y2="100%"><stop offset="20%" stop-color="#233c57" stop-opacity="1"></stop><stop offset="80%" stop-color="#3e5774" stop-opacity="1"></stop></linearGradient></defs><defs><linearGradient id="grad1_2" x1="33.3%" y1="0%" x2="100%" y2="100%"><stop offset="20%" stop-color="#5a7493" stop-opacity="1"></stop><stop offset="80%" stop-color="#3e5774" stop-opacity="1"></stop></linearGradient></defs><defs><linearGradient id="grad1_3" x1="33.3%" y1="0%" x2="100%" y2="100%"><stop offset="20%" stop-color="#5a7493" stop-opacity="1"></stop><stop offset="80%" stop-color="#7693b2" stop-opacity="1"></stop></linearGradient></defs><defs><linearGradient id="grad1_4" x1="33.3%" y1="0%" x2="100%" y2="100%"><stop offset="20%" stop-color="#94b2d3" stop-opacity="1"></stop><stop offset="80%" stop-color="#7693b2" stop-opacity="1"></stop></linearGradient></defs><defs><linearGradient id="grad2_0" x1="0%" y1="0%" x2="66.7%" y2="100%"><stop offset="20%" stop-color="#233c57" stop-opacity="1"></stop><stop offset="80%" stop-color="#233c57" stop-opacity="1"></stop></linearGradient></defs><defs><linearGradient id="grad2_1" x1="0%" y1="0%" x2="66.7%" y2="100%"><stop offset="20%" stop-color="#3e5774" stop-opacity="1"></stop><stop offset="80%" stop-color="#233c57" stop-opacity="1"></stop></linearGradient></defs><defs><linearGradient id="grad2_2" x1="0%" y1="0%" x2="66.7%" y2="100%"><stop offset="20%" stop-color="#3e5774" stop-opacity="1"></stop><stop offset="80%" stop-color="#5a7493" stop-opacity="1"></stop></linearGradient></defs><defs><linearGradient id="grad2_3" x1="0%" y1="0%" x2="66.7%" y2="100%"><stop offset="20%" stop-color="#7693b2" stop-opacity="1"></stop><stop offset="80%" stop-color="#5a7493" stop-opacity="1"></stop></linearGradient></defs><defs><linearGradient id="grad2_4" x1="0%" y1="0%" x2="66.7%" y2="100%"><stop offset="20%" stop-color="#7693b2" stop-opacity="1"></stop><stop offset="80%" stop-color="#94b2d3" stop-opacity="1"></stop></linearGradient></defs><g transform="translate(900, 0)"><path d="M0 537C-35.3 537 -70.6 536.9 -105.5 530.4C-140.5 524 -175.1 511 -202.4 488.7C-229.8 466.5 -250 434.8 -276.7 414.1C-303.4 393.3 -336.6 383.3 -364.9 364.9C-393.1 346.4 -416.4 319.4 -434.9 290.6C-453.3 261.8 -466.9 231.1 -482.3 199.8C-497.7 168.4 -514.9 136.2 -516.9 102.8C-518.8 69.4 -505.4 34.7 -492 0L0 0Z" fill="#85a2c3"></path><path d="M0 429.6C-28.2 429.6 -56.5 429.5 -84.4 424.4C-112.4 419.2 -140 408.8 -162 391C-183.9 373.2 -200 347.9 -221.3 331.3C-242.7 314.6 -269.3 306.7 -291.9 291.9C-314.5 277.1 -333.1 255.5 -347.9 232.5C-362.6 209.4 -373.5 184.9 -385.8 159.8C-398.1 134.7 -412 109 -413.5 82.3C-415 55.5 -404.3 27.8 -393.6 0L0 0Z" fill="#6883a2"></path><path d="M0 322.2C-21.2 322.2 -42.3 322.2 -63.3 318.3C-84.3 314.4 -105 306.6 -121.5 293.2C-137.9 279.9 -150 260.9 -166 248.4C-182 236 -202 230 -218.9 218.9C-235.9 207.8 -249.9 191.6 -260.9 174.3C-272 157.1 -280.1 138.7 -289.4 119.9C-298.6 101 -309 81.7 -310.1 61.7C-311.3 41.6 -303.2 20.8 -295.2 0L0 0Z" fill="#4c6683"></path><path d="M0 214.8C-14.1 214.8 -28.2 214.8 -42.2 212.2C-56.2 209.6 -70 204.4 -81 195.5C-91.9 186.6 -100 173.9 -110.7 165.6C-121.3 157.3 -134.6 153.3 -145.9 145.9C-157.3 138.6 -166.6 127.8 -173.9 116.2C-181.3 104.7 -186.7 92.5 -192.9 79.9C-199.1 67.4 -206 54.5 -206.7 41.1C-207.5 27.8 -202.2 13.9 -196.8 0L0 0Z" fill="#314965"></path><path d="M0 107.4C-7.1 107.4 -14.1 107.4 -21.1 106.1C-28.1 104.8 -35 102.2 -40.5 97.7C-46 93.3 -50 87 -55.3 82.8C-60.7 78.7 -67.3 76.7 -73 73C-78.6 69.3 -83.3 63.9 -87 58.1C-90.7 52.4 -93.4 46.2 -96.5 40C-99.5 33.7 -103 27.2 -103.4 20.6C-103.8 13.9 -101.1 6.9 -98.4 0L0 0Z" fill="#233c57"></path></g><g transform="translate(0, 600)"><path d="M0 -528C32.4 -513.2 64.9 -498.3 97.5 -490.4C130.2 -482.5 163.1 -481.4 197.5 -476.7C231.8 -472 267.6 -463.6 298.9 -447.3C330.1 -431.1 356.8 -407.1 379 -379C401.2 -350.9 418.9 -318.8 427.4 -285.6C435.9 -252.4 435.2 -218.1 456.4 -189C477.6 -160 520.8 -136.2 530.4 -105.5C540 -74.9 516 -37.4 492 0L0 0Z" fill="#85a2c3"></path><path d="M0 -422.4C26 -410.5 51.9 -398.7 78 -392.3C104.2 -386 130.5 -385.2 158 -381.4C185.5 -377.6 214.1 -370.8 239.1 -357.9C264.1 -344.9 285.5 -325.7 303.2 -303.2C321 -280.7 335.1 -255 341.9 -228.5C348.7 -201.9 348.1 -174.5 365.1 -151.2C382.1 -128 416.7 -108.9 424.4 -84.4C432 -59.9 412.8 -29.9 393.6 0L0 0Z" fill="#6883a2"></path><path d="M0 -316.8C19.5 -307.9 38.9 -299 58.5 -294.2C78.1 -289.5 97.9 -288.9 118.5 -286C139.1 -283.2 160.6 -278.1 179.3 -268.4C198.1 -258.7 214.1 -244.3 227.4 -227.4C240.7 -210.6 251.3 -191.3 256.4 -171.3C261.5 -151.4 261.1 -130.9 273.8 -113.4C286.6 -96 312.5 -81.7 318.3 -63.3C324 -44.9 309.6 -22.5 295.2 0L0 0Z" fill="#4c6683"></path><path d="M0 -211.2C13 -205.3 26 -199.3 39 -196.2C52.1 -193 65.2 -192.6 79 -190.7C92.7 -188.8 107.1 -185.4 119.6 -178.9C132.1 -172.4 142.7 -162.8 151.6 -151.6C160.5 -140.4 167.6 -127.5 171 -114.2C174.3 -100.9 174.1 -87.2 182.6 -75.6C191.1 -64 208.3 -54.5 212.2 -42.2C216 -29.9 206.4 -15 196.8 0L0 0Z" fill="#314965"></path><path d="M0 -105.6C6.5 -102.6 13 -99.7 19.5 -98.1C26 -96.5 32.6 -96.3 39.5 -95.3C46.4 -94.4 53.5 -92.7 59.8 -89.5C66 -86.2 71.4 -81.4 75.8 -75.8C80.2 -70.2 83.8 -63.8 85.5 -57.1C87.2 -50.5 87 -43.6 91.3 -37.8C95.5 -32 104.2 -27.2 106.1 -21.1C108 -15 103.2 -7.5 98.4 0L0 0Z" fill="#233c57"></path></g></svg>