<svg id="visual" viewBox="0 0 900 600" width="900" height="600" xmlns="http://www.w3.org/2000/svg" xmlns:xlink="http://www.w3.org/1999/xlink" version="1.1"><path d="M0 37L15 33C30 29 60 21 90 19C120 17 150 21 180 22C210 23 240 21 270 23C300 25 330 31 360 35C390 39 420 41 450 40C480 39 510 35 540 33C570 31 600 31 630 29C660 27 690 23 720 22C750 21 780 23 810 25C840 27 870 29 885 30L900 31L900 0L885 0C870 0 840 0 810 0C780 0 750 0 720 0C690 0 660 0 630 0C600 0 570 0 540 0C510 0 480 0 450 0C420 0 390 0 360 0C330 0 300 0 270 0C240 0 210 0 180 0C150 0 120 0 90 0C60 0 30 0 15 0L0 0Z" fill="#ffffff"></path><path d="M0 79L15 76C30 73 60 67 90 70C120 73 150 85 180 95C210 105 240 113 270 114C300 115 330 109 360 104C390 99 420 95 450 100C480 105 510 119 540 118C570 117 600 101 630 101C660 101 690 117 720 113C750 109 780 85 810 78C840 71 870 81 885 86L900 91L900 29L885 28C870 27 840 25 810 23C780 21 750 19 720 20C690 21 660 25 630 27C600 29 570 29 540 31C510 33 480 37 450 38C420 39 390 37 360 33C330 29 300 23 270 21C240 19 210 21 180 20C150 19 120 15 90 17C60 19 30 27 15 31L0 35Z" fill="#ffffff"></path><path d="M0 121L15 116C30 111 60 101 90 108C120 115 150 139 180 154C210 169 240 175 270 173C300 171 330 161 360 152C390 143 420 135 450 136C480 137 510 147 540 143C570 139 600 121 630 122C660 123 690 143 720 140C750 137 780 111 810 109C840 107 870 129 885 140L900 151L900 89L885 84C870 79 840 69 810 76C780 83 750 107 720 111C690 115 660 99 630 99C600 99 570 115 540 116C510 117 480 103 450 98C420 93 390 97 360 102C330 107 300 113 270 112C240 111 210 103 180 93C150 83 120 71 90 68C60 65 30 71 15 74L0 77Z" fill="#ffffff"></path><path d="M0 133L15 129C30 125 60 117 90 126C120 135 150 161 180 177C210 193 240 199 270 198C300 197 330 189 360 181C390 173 420 165 450 165C480 165 510 173 540 168C570 163 600 145 630 145C660 145 690 163 720 159C750 155 780 129 810 128C840 127 870 151 885 163L900 175L900 149L885 138C870 127 840 105 810 107C780 109 750 135 720 138C690 141 660 121 630 120C600 119 570 137 540 141C510 145 480 135 450 134C420 133 390 141 360 150C330 159 300 169 270 171C240 173 210 167 180 152C150 137 120 113 90 106C60 99 30 109 15 114L0 119Z" fill="#f9f9f9"></path><path d="M0 169L15 162C30 155 60 141 90 149C120 157 150 187 180 203C210 219 240 221 270 223C300 225 330 227 360 223C390 219 420 209 450 209C480 209 510 219 540 211C570 203 600 177 630 178C660 179 690 207 720 204C750 201 780 167 810 166C840 165 870 197 885 213L900 229L900 173L885 161C870 149 840 125 810 126C780 127 750 153 720 157C690 161 660 143 630 143C600 143 570 161 540 166C510 171 480 163 450 163C420 163 390 171 360 179C330 187 300 195 270 196C240 197 210 191 180 175C150 159 120 133 90 124C60 115 30 123 15 127L0 131Z" fill="#f1f1f1"></path><path d="M0 367L15 345C30 323 60 279 90 277C120 275 150 315 180 338C210 361 240 367 270 366C300 365 330 357 360 340C390 323 420 297 450 289C480 281 510 291 540 287C570 283 600 265 630 271C660 277 690 307 720 304C750 301 780 265 810 262C840 259 870 289 885 304L900 319L900 227L885 211C870 195 840 163 810 164C780 165 750 199 720 202C690 205 660 177 630 176C600 175 570 201 540 209C510 217 480 207 450 207C420 207 390 217 360 221C330 225 300 223 270 221C240 219 210 217 180 201C150 185 120 155 90 147C60 139 30 153 15 160L0 167Z" fill="#eeeeee"></path><path d="M0 403L15 379C30 355 60 307 90 303C120 299 150 339 180 361C210 383 240 387 270 389C300 391 330 391 360 376C390 361 420 331 450 320C480 309 510 317 540 314C570 311 600 297 630 302C660 307 690 331 720 326C750 321 780 287 810 285C840 283 870 313 885 328L900 343L900 317L885 302C870 287 840 257 810 260C780 263 750 299 720 302C690 305 660 275 630 269C600 263 570 281 540 285C510 289 480 279 450 287C420 295 390 321 360 338C330 355 300 363 270 364C240 365 210 359 180 336C150 313 120 273 90 275C60 277 30 321 15 343L0 365Z" fill="#eeeeee"></path><path d="M0 415L15 391C30 367 60 319 90 319C120 319 150 367 180 390C210 413 240 411 270 410C300 409 330 409 360 396C390 383 420 357 450 348C480 339 510 347 540 344C570 341 600 327 630 331C660 335 690 357 720 349C750 341 780 303 810 301C840 299 870 333 885 350L900 367L900 341L885 326C870 311 840 281 810 283C780 285 750 319 720 324C690 329 660 305 630 300C600 295 570 309 540 312C510 315 480 307 450 318C420 329 390 359 360 374C330 389 300 389 270 387C240 385 210 381 180 359C150 337 120 297 90 301C60 305 30 353 15 377L0 401Z" fill="#f1f1f1"></path><path d="M0 475L15 474C30 473 60 471 90 474C120 477 150 485 180 491C210 497 240 501 270 506C300 511 330 517 360 512C390 507 420 491 450 489C480 487 510 499 540 501C570 503 600 495 630 491C660 487 690 487 720 483C750 479 780 471 810 479C840 487 870 511 885 523L900 535L900 365L885 348C870 331 840 297 810 299C780 301 750 339 720 347C690 355 660 333 630 329C600 325 570 339 540 342C510 345 480 337 450 346C420 355 390 381 360 394C330 407 300 407 270 408C240 409 210 411 180 388C150 365 120 317 90 317C60 317 30 365 15 389L0 413Z" fill="#f9f9f9"></path><path d="M0 535L15 533C30 531 60 527 90 525C120 523 150 523 180 525C210 527 240 531 270 535C300 539 330 543 360 542C390 541 420 535 450 538C480 541 510 553 540 552C570 551 600 537 630 532C660 527 690 531 720 535C750 539 780 543 810 549C840 555 870 563 885 567L900 571L900 533L885 521C870 509 840 485 810 477C780 469 750 477 720 481C690 485 660 485 630 489C600 493 570 501 540 499C510 497 480 485 450 487C420 489 390 505 360 510C330 515 300 509 270 504C240 499 210 495 180 489C150 483 120 475 90 472C60 469 30 471 15 472L0 473Z" fill="#ffffff"></path><path d="M0 559L15 558C30 557 60 555 90 555C120 555 150 557 180 559C210 561 240 563 270 565C300 567 330 569 360 567C390 565 420 559 450 560C480 561 510 569 540 568C570 567 600 557 630 552C660 547 690 547 720 552C750 557 780 567 810 573C840 579 870 581 885 582L900 583L900 569L885 565C870 561 840 553 810 547C780 541 750 537 720 533C690 529 660 525 630 530C600 535 570 549 540 550C510 551 480 539 450 536C420 533 390 539 360 540C330 541 300 537 270 533C240 529 210 525 180 523C150 521 120 521 90 523C60 525 30 529 15 531L0 533Z" fill="#ffffff"></path><path d="M0 601L15 601C30 601 60 601 90 601C120 601 150 601 180 601C210 601 240 601 270 601C300 601 330 601 360 601C390 601 420 601 450 601C480 601 510 601 540 601C570 601 600 601 630 601C660 601 690 601 720 601C750 601 780 601 810 601C840 601 870 601 885 601L900 601L900 581L885 580C870 579 840 577 810 571C780 565 750 555 720 550C690 545 660 545 630 550C600 555 570 565 540 566C510 567 480 559 450 558C420 557 390 563 360 565C330 567 300 565 270 563C240 561 210 559 180 557C150 555 120 553 90 553C60 553 30 555 15 556L0 557Z" fill="#ffffff"></path></svg>