<svg id="visual" viewBox="0 0 900 600" width="900" height="600" xmlns="http://www.w3.org/2000/svg" xmlns:xlink="http://www.w3.org/1999/xlink" version="1.1"><path d="M787 600L808 600L808 450L774 450L774 300L787 300L787 150L771 150L771 0L900 0L900 150L900 150L900 300L900 300L900 450L900 450L900 600L900 600Z" fill="#303031"></path><path d="M855 600L847 600L847 450L837 450L837 300L833 300L833 150L858 150L858 0L900 0L900 150L900 150L900 300L900 300L900 450L900 450L900 600L900 600Z" fill="#656566"></path></svg>