<?xml version="1.0" encoding="UTF-8"?><svg id="Artwork" xmlns="http://www.w3.org/2000/svg" viewBox="0 0 1616.586 378"><path d="m437.64,349.057c-4.569,0-8.769-.642-12.605-1.918v-197.847c2.192-.912,4.384-1.46,6.577-1.644,2.192-.18,4.016-.274,5.481-.274,2.008,0,4.153.095,6.44.274,2.282.184,4.521.732,6.714,1.644l67.136,132.903,66.862-132.903c2.372-.912,4.564-1.46,6.577-1.644,2.008-.18,3.742-.274,5.206-.274,2.008,0,4.2.095,6.577.274,2.372.184,4.565.732,6.577,1.644v197.847c-4.384,1.276-8.679,1.918-12.879,1.918-4.568,0-8.769-.642-12.605-1.918v-143.042l-55.079,109.337c-3.108,1.28-6.851,1.918-11.235,1.918s-8.221-.638-11.509-1.918l-55.353-109.61v143.315c-4.384,1.276-8.679,1.918-12.879,1.918Z" fill="#414142"/><path d="m633.843,327.957c4.564-1.46,10.229-3.605,16.99-6.439,6.756-2.83,13.153-5.798,19.182-8.906-6.029-11.689-9.043-25.211-9.043-40.556,0-11.325,2.098-21.326,6.303-30.005,4.2-8.675,10.045-15.526,17.538-20.552,7.489-5.023,15.983-7.536,25.484-7.536,8.037,0,15.161,1.875,21.374,5.617,6.208,3.746,11.051,8.906,14.523,15.482,3.468,6.577,5.206,14.16,5.206,22.745-.732,21.922-16.261,42.658-46.584,62.203,6.029,5.117,14.429,7.673,25.211,7.673,2.556,0,4.564,1.096,6.028,3.288,1.46,2.193,2.192,5.117,2.192,8.769,0,3.473-.822,6.213-2.466,8.221-1.644,2.009-4.021,3.015-7.125,3.015-9.501,0-18.317-1.691-26.443-5.07-8.131-3.378-14.66-8.084-19.593-14.112-6.76,3.472-13.932,6.808-21.511,10.001-7.583,3.198-14.022,5.617-19.319,7.262-2.924-2.556-5.07-5.571-6.44-9.043-1.37-3.468-1.871-7.489-1.507-12.057Zm50.969-58.094c0,12.973,2.098,23.75,6.302,32.335,12.605-8.4,21.738-15.936,27.403-22.607,5.661-6.666,8.675-13.928,9.043-21.784,0-6.577-1.601-11.736-4.795-15.483-3.199-3.742-7.63-5.617-13.29-5.617-7.125,0-13.016,3.198-17.675,9.591-4.658,6.396-6.988,14.25-6.988,23.566Z" fill="#414142"/><path d="m729.204,350.975c-2.556,0-4.659-1.096-6.303-3.288-1.644-2.192-2.466-5.023-2.466-8.495,0-3.652.916-6.482,2.74-8.494,1.828-2.008,4.205-3.014,7.125-3.014,14.433,0,27.176-3.743,38.227-11.236,11.051-7.488,19.772-17.812,26.169-30.965,6.393-13.153,9.591-28.225,9.591-45.214v-26.306h-20.278c-1.28-2.921-1.918-6.577-1.918-10.961s.638-8.037,1.918-10.961h20.278v-48.503c3.468-1.276,7.673-1.918,12.605-1.918,4.384,0,8.585.642,12.605,1.918v48.503h40.83c1.46,2.924,2.192,6.576,2.192,10.961s-.732,8.04-2.192,10.961h-40.83v56.723c0,18.27,2.783,32.293,8.358,42.063,5.57,9.775,13.47,14.66,23.703,14.66,5.297,0,7.947,4.021,7.947,12.057,0,3.472-.869,6.26-2.603,8.358-1.738,2.098-4.157,3.152-7.262,3.152-12.605,0-23.113-3.794-31.513-11.372-8.405-7.579-14.434-18.128-18.086-31.65-8.589,13.522-19.777,24.071-33.568,31.65-13.796,7.579-29.548,11.372-47.269,11.372Z" fill="#414142"/><path d="m859.64,350.975c-2.372,0-4.29-1.096-5.755-3.288-1.46-2.192-2.192-5.023-2.192-8.495,0-7.852,3.288-11.783,9.865-11.783,8.037,0,15.209-3.331,21.511-10.001,6.302-6.667,11.325-15.756,15.071-27.266,3.742-11.509,5.617-24.295,5.617-38.364,0-3.288-.184-6.302-.548-9.043-.368-2.74-.822-5.023-1.37-6.851-1.644-1.645-3.425-4.291-5.344-7.947-1.918-3.652-3.562-7.536-4.932-11.646-1.37-4.11-2.055-7.442-2.055-10.002,2.192-3.468,5.707-6.166,10.55-8.083,4.838-1.918,10.182-2.419,16.03-1.508,3.468,6.397,6.303,14.434,8.495,24.115,5.481-.18,12.879-1.37,22.196-3.563,5.844-1.275,10.55-2.145,14.112-2.603,3.563-.454,6.619-.685,9.18-.685,9.865,0,17.627,3.699,23.292,11.098,5.66,7.399,8.495,17.4,8.495,30.006v44.118c0,10.597,1.413,17.949,4.247,22.059,2.83,4.11,6.988,6.166,12.468,6.166,2.556,0,4.521,1.096,5.891,3.288,1.37,2.192,2.055,5.117,2.055,8.769,0,2.925-.779,5.575-2.329,7.946-1.554,2.372-4.068,3.563-7.536,3.563-11.145,0-20.552-3.794-28.225-11.372-7.673-7.579-11.509-20.047-11.509-37.405v-42.474c0-8.221-.916-13.975-2.74-17.263-1.828-3.288-5.117-4.932-9.865-4.932-1.644,0-3.472.184-5.481.548-2.012.368-5.575,1.096-10.687,2.192-8.953,1.828-15.714,2.925-20.278,3.288.18,2.925.274,5.848.274,8.769,0,19.729-2.835,36.994-8.495,51.79-5.665,14.798-13.658,26.307-23.977,34.528-10.323,8.221-22.333,12.331-36.034,12.331Z" fill="#414142"/><path d="m1018.575,327.409c3.836,0,7.947-1.186,12.331-3.562,4.384-2.372,8.495-6.029,12.331-10.961,4.564-6.208,7.9-13.333,10.002-21.374,2.098-8.037,3.425-16.168,3.974-24.389v-49.325c1.644-.548,3.562-1.002,5.755-1.37,2.192-.364,4.474-.548,6.851-.548,4.2,0,8.311.642,12.331,1.918v78.919c0,9.686,1.507,17.221,4.521,22.607,3.014,5.391,8.084,8.084,15.208,8.084,3.104,0,5.207,1.281,6.303,3.837,1.096,2.561,1.644,5.301,1.644,8.221s-.779,5.575-2.329,7.946c-1.554,2.372-4.068,3.563-7.536,3.563-19.002,0-31.333-8.949-36.994-26.855-2.561,4.205-5.301,7.767-8.221,10.687-4.933,4.932-10.644,8.863-17.127,11.783-6.487,2.92-13.475,4.385-20.963,4.385-2.556,0-4.522-1.233-5.892-3.7-1.37-2.466-2.055-5.159-2.055-8.084,0-3.104.779-5.844,2.329-8.221,1.554-2.372,4.068-3.562,7.536-3.562Zm51.791-155.92c-5.117,0-9.501-1.824-13.153-5.481-3.657-3.652-5.481-8.037-5.481-13.154,0-5.296,1.781-9.728,5.344-13.29,3.562-3.562,7.989-5.344,13.29-5.344s9.728,1.781,13.29,5.344c3.563,3.562,5.344,7.994,5.344,13.29,0,5.117-1.781,9.501-5.344,13.154-3.562,3.656-7.994,5.481-13.29,5.481Z" fill="#414142"/><path d="m1101.879,327.409c6.029,0,11.92-2.877,17.675-8.631,5.755-5.755,10.64-13.47,14.66-23.155-.732-4.385-1.096-8.859-1.096-13.428,0-13.153,2.646-24.842,7.947-35.075,5.296-10.229,12.558-18.312,21.785-24.251,9.222-5.935,19.683-8.906,31.375-8.906,8.037,0,15.799,1.781,23.292,5.343,7.489,3.563,13.243,8.452,17.264,14.661-.732,2.561-2.835,5.527-6.303,8.906-3.472,3.383-6.67,5.711-9.591,6.988-2.376-3.468-5.617-6.393-9.728-8.769-4.11-2.372-9.274-3.562-15.482-3.562-10.597,0-19.092,4.068-25.485,12.194-6.396,8.131-9.591,18.591-9.591,31.376,0,14.433,3.606,25.758,10.824,33.979,7.215,8.221,16.942,12.331,29.184,12.331,8.4,0,15.846-1.781,22.333-5.344,6.483-3.562,12.558-8.447,18.223-14.66,3.104,1.828,5.935,4.02,8.494,6.577,2.557,2.56,5.023,5.39,7.399,8.494-6.576,8.953-14.797,15.941-24.662,20.963-9.865,5.022-20.462,7.536-31.787,7.536-11.509,0-21.833-2.467-30.965-7.399-9.138-4.932-16.626-11.599-22.47-20.004-11.33,18.27-26.401,27.403-45.214,27.403-2.372,0-4.29-1.096-5.755-3.288-1.46-2.192-2.192-5.023-2.192-8.495,0-7.852,3.288-11.783,9.865-11.783Z" fill="#414142"/><path d="m1290.957,350.975c-4.02-.548-8.04-1.554-12.057-3.015-4.021-1.46-7.399-3.562-10.139-6.302l76.727-192.366c2.92-1.276,6.393-1.918,10.413-1.918,4.565,0,8.127.642,10.687,1.918l77.275,192.093c-2.376,2.56-5.575,4.615-9.591,6.166-4.021,1.55-8.495,2.693-13.428,3.425l-21.648-54.531h-86.866l-21.375,54.531Zm30.691-78.097h68.233l-34.253-86.318-33.98,86.318Z" fill="#414142"/><path d="m1474.555,347.139c-1.281-3.104-1.918-6.988-1.918-11.646s.638-8.448,1.918-11.372h36.719v-151.81h-36.719c-1.281-3.104-1.918-6.988-1.918-11.646s.638-8.448,1.918-11.372h98.649c1.276,2.925,1.918,6.714,1.918,11.372s-.642,8.542-1.918,11.646h-36.445v151.81h36.445c1.276,2.925,1.918,6.714,1.918,11.372s-.642,8.542-1.918,11.646h-98.649Z" fill="#414142"/><rect x="255.964" y="241.525" width="107.25" height="107.25" fill="#94b2d3"/><rect x="255.964" y="134.275" width="107.25" height="107.25" fill="#94b2d3" opacity=".75"/><rect x="255.964" y="27.025" width="107.25" height="107.25" fill="#94b2d3" opacity=".5"/><rect x="148.714" y="241.525" width="107.25" height="107.25" fill="#92ad94"/><rect x="148.714" y="134.275" width="107.25" height="107.25" fill="#92ad94" opacity=".75"/><rect x="41.464" y="241.525" width="107.25" height="107.25" fill="#414142"/></svg>