<?xml version="1.0" encoding="UTF-8"?><svg id="Artwork" xmlns="http://www.w3.org/2000/svg" viewBox="0 0 1616.586 1500"><path d="m77.538,1295.212c-5.936,0-11.393-.834-16.378-2.492v-257.055c2.848-1.185,5.697-1.896,8.545-2.136,2.849-.233,5.218-.357,7.121-.357,2.609,0,5.396.123,8.367.357,2.965.239,5.874.951,8.723,2.136l87.228,172.675,86.872-172.675c3.082-1.185,5.93-1.896,8.545-2.136,2.609-.233,4.862-.357,6.765-.357,2.609,0,5.457.123,8.545.357,3.082.239,5.931.951,8.545,2.136v257.055c-5.697,1.658-11.276,2.492-16.734,2.492-5.936,0-11.393-.834-16.378-2.492v-185.849l-71.562,142.057c-4.039,1.663-8.901,2.492-14.597,2.492s-10.681-.829-14.954-2.492l-71.919-142.413v186.204c-5.696,1.658-11.276,2.492-16.733,2.492Z" fill="#414142"/><path d="m332.457,1267.797c5.93-1.897,13.29-4.684,22.074-8.366,8.778-3.678,17.089-7.533,24.922-11.571-7.833-15.187-11.749-32.755-11.749-52.693,0-14.714,2.726-27.709,8.189-38.985,5.457-11.271,13.051-20.172,22.786-26.702,9.73-6.526,20.766-9.791,33.111-9.791,10.442,0,19.698,2.436,27.771,7.298,8.066,4.868,14.358,11.571,18.869,20.115,4.506,8.545,6.765,18.398,6.765,29.551-.951,28.483-21.128,55.423-60.525,80.818,7.833,6.648,18.747,9.97,32.755,9.97,3.321,0,5.93,1.424,7.832,4.272,1.897,2.849,2.849,6.648,2.849,11.393,0,4.512-1.068,8.072-3.204,10.681-2.136,2.61-5.224,3.917-9.257,3.917-12.344,0-23.799-2.197-34.357-6.587-10.564-4.389-19.048-10.503-25.457-18.335-8.784,4.511-18.102,8.845-27.948,12.995-9.852,4.155-18.219,7.298-25.101,9.435-3.799-3.321-6.587-7.238-8.367-11.749-1.78-4.506-2.431-9.73-1.958-15.666Zm66.222-75.479c0,16.856,2.726,30.858,8.189,42.012,16.378-10.914,28.244-20.705,35.603-29.373,7.355-8.661,11.271-18.096,11.749-28.304,0-8.545-2.081-15.249-6.231-20.116-4.156-4.862-9.914-7.298-17.268-7.298-9.257,0-16.912,4.155-22.964,12.461-6.052,8.311-9.079,18.514-9.079,30.618Z" fill="#414142"/><path d="m456.356,1297.704c-3.321,0-6.053-1.425-8.189-4.273-2.136-2.848-3.204-6.526-3.204-11.038,0-4.744,1.191-8.422,3.56-11.037,2.376-2.609,5.463-3.916,9.257-3.916,18.753,0,35.308-4.863,49.667-14.598,14.358-9.729,25.69-23.142,34.001-40.231,8.306-17.089,12.461-36.671,12.461-58.745v-34.179h-26.346c-1.663-3.795-2.492-8.545-2.492-14.241s.829-10.443,2.492-14.241h26.346v-63.018c4.506-1.658,9.969-2.492,16.378-2.492,5.697,0,11.154.834,16.378,2.492v63.018h53.049c1.897,3.799,2.848,8.544,2.848,14.241s-.951,10.447-2.848,14.241h-53.049v73.698c0,23.738,3.616,41.957,10.859,54.651,7.237,12.701,17.501,19.047,30.797,19.047,6.882,0,10.325,5.224,10.325,15.666,0,4.511-1.129,8.133-3.382,10.859-2.258,2.726-5.402,4.095-9.435,4.095-16.378,0-30.029-4.929-40.944-14.776-10.92-9.846-18.753-23.553-23.498-41.121-11.159,17.568-25.696,31.275-43.614,41.121-17.924,9.846-38.39,14.776-61.415,14.776Z" fill="#414142"/><path d="m625.827,1297.704c-3.082,0-5.574-1.425-7.477-4.273-1.897-2.848-2.849-6.526-2.849-11.038,0-10.202,4.273-15.309,12.817-15.309,10.442,0,19.76-4.328,27.949-12.995,8.189-8.662,14.714-20.472,19.582-35.425,4.862-14.954,7.298-31.565,7.298-49.844,0-4.273-.239-8.189-.712-11.749-.478-3.56-1.068-6.526-1.78-8.901-2.136-2.137-4.45-5.575-6.943-10.325-2.492-4.745-4.628-9.791-6.408-15.131s-2.67-9.669-2.67-12.996c2.848-4.506,7.415-8.011,13.707-10.502,6.286-2.492,13.229-3.143,20.827-1.959,4.506,8.312,8.189,18.753,11.037,31.332,7.121-.234,16.734-1.78,28.839-4.629,7.593-1.657,13.707-2.786,18.336-3.382,4.629-.59,8.6-.89,11.927-.89,12.817,0,22.903,4.806,30.263,14.419,7.354,9.613,11.037,22.608,11.037,38.986v57.321c0,13.768,1.836,23.32,5.518,28.66,3.677,5.34,9.079,8.011,16.2,8.011,3.321,0,5.874,1.425,7.655,4.273s2.67,6.648,2.67,11.393c0,3.8-1.013,7.243-3.026,10.324-2.02,3.082-5.285,4.629-9.791,4.629-14.481,0-26.702-4.929-36.671-14.776-9.969-9.846-14.954-26.046-14.954-48.599v-55.185c0-10.681-1.191-18.157-3.56-22.43-2.375-4.273-6.648-6.408-12.817-6.408-2.136,0-4.511.239-7.121.712-2.615.478-7.243,1.424-13.885,2.848-11.632,2.375-20.416,3.8-26.346,4.273.233,3.8.356,7.598.356,11.393,0,25.633-3.683,48.064-11.037,67.289-7.36,19.226-17.746,34.18-31.153,44.861-13.412,10.681-29.016,16.021-46.818,16.021Z" fill="#414142"/><path d="m832.325,1267.085c4.984,0,10.325-1.541,16.021-4.628,5.697-3.082,11.037-7.833,16.021-14.241,5.93-8.066,10.264-17.323,12.995-27.77,2.726-10.442,4.45-21.006,5.163-31.687v-64.086c2.136-.712,4.628-1.301,7.477-1.78,2.848-.473,5.813-.712,8.901-.712,5.457,0,10.798.834,16.021,2.492v102.537c0,12.584,1.958,22.375,5.874,29.373,3.916,7.004,10.503,10.503,19.76,10.503,4.033,0,6.765,1.664,8.189,4.985,1.424,3.327,2.136,6.887,2.136,10.681s-1.013,7.243-3.026,10.324c-2.02,3.082-5.285,4.629-9.791,4.629-24.689,0-40.71-11.627-48.064-34.892-3.327,5.464-6.887,10.092-10.681,13.886-6.409,6.408-13.83,11.515-22.252,15.309-8.428,3.794-17.507,5.697-27.236,5.697-3.321,0-5.875-1.602-7.655-4.807-1.78-3.204-2.67-6.703-2.67-10.503,0-4.033,1.013-7.593,3.026-10.681,2.02-3.082,5.285-4.628,9.791-4.628Zm67.29-202.581c-6.648,0-12.344-2.37-17.089-7.121-4.751-4.745-7.121-10.443-7.121-17.09,0-6.881,2.314-12.639,6.943-17.267,4.628-4.628,10.38-6.943,17.267-6.943s12.639,2.315,17.268,6.943c4.629,4.628,6.943,10.386,6.943,17.267,0,6.648-2.314,12.345-6.943,17.09-4.628,4.75-10.386,7.121-17.268,7.121Z" fill="#414142"/><path d="m940.559,1267.085c7.833,0,15.487-3.738,22.964-11.214,7.477-7.477,13.824-17.502,19.048-30.085-.952-5.697-1.425-11.51-1.425-17.446,0-17.089,3.438-32.276,10.325-45.572,6.881-13.29,16.316-23.793,28.305-31.508,11.982-7.711,25.573-11.571,40.765-11.571,10.443,0,20.527,2.314,30.263,6.942,9.73,4.629,17.207,10.982,22.431,19.048-.952,3.327-3.683,7.181-8.19,11.571-4.511,4.395-8.666,7.421-12.461,9.079-3.087-4.506-7.298-8.306-12.639-11.393-5.34-3.082-12.049-4.628-20.115-4.628-13.768,0-24.806,5.285-33.112,15.844-8.311,10.564-12.461,24.154-12.461,40.766,0,18.752,4.685,33.466,14.063,44.147,9.374,10.681,22.013,16.021,37.918,16.021,10.914,0,20.588-2.314,29.016-6.943,8.423-4.628,16.316-10.975,23.677-19.047,4.033,2.375,7.711,5.223,11.037,8.545,3.322,3.326,6.526,7.003,9.613,11.037-8.544,11.633-19.225,20.711-32.043,27.237-12.817,6.525-26.585,9.791-41.299,9.791-14.954,0-28.366-3.205-40.231-9.613-11.872-6.408-21.601-15.071-29.195-25.99-14.72,23.737-34.302,35.603-58.745,35.603-3.082,0-5.574-1.425-7.477-4.273-1.897-2.848-2.849-6.526-2.849-11.038,0-10.202,4.273-15.309,12.817-15.309Z" fill="#414142"/><path d="m1186.22,1297.704c-5.223-.712-10.447-2.02-15.665-3.917-5.224-1.896-9.613-4.628-13.173-8.189l99.689-249.934c3.794-1.658,8.306-2.492,13.529-2.492,5.931,0,10.559.834,13.886,2.492l100.401,249.579c-3.087,3.326-7.244,5.996-12.461,8.011-5.224,2.014-11.038,3.499-17.446,4.45l-28.127-70.851h-112.861l-27.771,70.851Zm39.876-101.469h88.652l-44.504-112.15-44.148,112.15Z" fill="#414142"/><path d="m1424.762,1292.719c-1.664-4.033-2.492-9.079-2.492-15.131s.828-10.976,2.492-14.776h47.708v-197.241h-47.708c-1.664-4.033-2.492-9.079-2.492-15.131s.828-10.976,2.492-14.776h128.171c1.658,3.8,2.492,8.723,2.492,14.776s-.834,11.098-2.492,15.131h-47.352v197.241h47.352c1.658,3.8,2.492,8.723,2.492,14.776s-.834,11.098-2.492,15.131h-128.171Z" fill="#414142"/><rect x="910.017" y="609.189" width="203.447" height="203.447" fill="#94b2d3"/><rect x="910.017" y="405.743" width="203.447" height="203.447" fill="#94b2d3" opacity=".75"/><rect x="910.017" y="202.296" width="203.447" height="203.447" fill="#94b2d3" opacity=".5"/><rect x="706.57" y="609.189" width="203.447" height="203.447" fill="#92ad94"/><rect x="706.57" y="405.743" width="203.447" height="203.447" fill="#92ad94" opacity=".75"/><rect x="503.123" y="609.189" width="203.447" height="203.447" fill="#414142"/></svg>